<?xml version="1.0" encoding="UTF-8" standalone="no"?>
<svg
   xmlns:svg="http://www.w3.org/2000/svg"
   xmlns="http://www.w3.org/2000/svg"
   version="1.0"
   width="323.000000pt"
   height="544.000000pt"
   viewBox="0 0 323.000000 544.000000"
   preserveAspectRatio="xMidYMid meet"
   id="svg1407">
  <defs id="defs1411">
    <linearGradient id="half-hole" x1="0" y1="0" x2="1" y2="1">
      <stop offset="0%" stop-color="#fff" />
      <stop offset="50%" stop-color="#fff" />
      <stop offset="50%" stop-color="#000" />
      <stop offset="100%" stop-color="#000" />
    </linearGradient>
  </defs>
  <g
     transform="matrix(0.1,0,0,-0.1,-62.5,555)"
     id="g1405"
     style="display:inline;fill:none;stroke:#000;stroke-width:15;stroke-miterlimit:4">
    <path
       d="m 2711,5509 c -51,-11 -121,-31 -154,-45 -62.6538,-17.9228 -171.7709,-62.8506 -203.1524,-69.9053 l -0.2287,-33.9237 93.7045,25.6282 c 43,4 118.6766,-32.7992 193.6766,-33.7992 115,-3 149,0 214,17 126,35 185,74 169,114 -17,45 -167,58 -313,26 z"
       id="path1289"
       class="top-e" />
    <path
       d="m 1647.2094,5220.6129 c 0,-50.3243 2.9043,-222.5013 0.8386,-308.4823 -1.4148,-58.8929 -36.8738,-54.605 -137.048,-91.1306 -176.8275,-64.475 -183.9193,-171.4035 -8.9193,-171.4035 68,0 120.5822,21.102 157.9193,57.4035 31.4247,30.553 25,37 25,277 l -1.3064,237.0807 c -29.4684,0 -16.0406,-0.4106 -36.4842,-0.4678 z"
       class="top-d"
       id="path114" />
    <path
       d="m 937.32338,4545.8476 c 39.03382,-67.1169 69.87332,-97.3496 89.20292,-184.826 10.2175,-46.2396 23.2578,-132.648 75.9756,-140.9021 30.6681,-4.8017 60.5616,34.1993 67.1364,64.5367 17.3211,79.9232 -31.5792,160.0135 -90.6121,227.9893 -44.8992,51.7009 -93.45753,125.2748 -95.29284,199.3929 -4.63424,169.2121 -0.0955,330.6039 1.7239,487.9616 l -45.13388,1.8476 c -1.57528,-219.4831 -1.63543,-457.4268 -3,-656 z"
       class="low-b"
       id="path116" />
    <path
       d="m 1070.5335,5195.8476 c 0.1481,-179.3156 -0.4932,-350.1491 -0.5335,-515.1432 37.0103,-55.1345 84.4487,-115.1985 117.0155,-173.0526 23.6234,-41.9664 18.3364,-99.08 34.2652,-143.635 12.5061,-34.9813 42.1274,-74.1517 81.7193,-74.0168 34.7207,0.1183 64.297,34.7934 72.25,67 15.2654,61.8192 -15.2433,119.9265 -54.1246,172.7413 -51.2888,69.6686 -127.3399,122.0158 -175.7387,193.4952 -35.7869,52.8531 -23.7766,135.7828 -24.5349,196.5518 -1.1485,92.0381 0.086,184.0903 0.1297,276.1355 -26.1569,0 -25.2971,-0.076 -50.448,-0.076 z"
       class="low-b♭"
       id="path118" />
    <path
       d="m 1754.4352,4985.3064 c 0,-30.2349 -0.4679,-79.3064 -0.4679,-166.3064 0,-152 -12.7579,-164.5322 -35.7579,-192.5322 -15,-17 -76.2123,-34.4607 -118.2094,-51.4678 -79.0029,-31.9929 -120,-71 -120,-115 0,-39 38.9596,-61.4535 115,-68 74.9623,-6.4537 137.4229,17.2267 176.7579,75 24.6667,36.2292 25,37 25,277 v 241 c -18.9596,2.2932 -6.9807,0.3064 -42.3227,0.3064 z"
       class="top-c"
       id="path120" />
    <path
       d="m 1958,4610 c -0.2283,-243.2916 -90.0926,-294.4515 -273,-290 -114.6222,2.7896 -356.8165,-13.1816 -236.1614,-131.8069 40.3505,-39.6716 140.9376,-65.1358 215,-59 114.8515,9.5151 263.639,41.1942 313.8069,145.1133 19.8324,41.0813 21,60 21,345 v 302 c -23.3333,0 -15.3122,-1.3064 -38.6455,-1.3064 -2.2605,-103.3051 -1.903,-206.6923 -2,-310 z"
       class="tuning-a"
       id="path122" />
    <path
       d="m 2785,4780 c -86,-10 -160,-29 -288,-75 -43.3081,-28.4234 -87.903,-35.8341 -151,-48 1.0902,-22.9268 0.059,2.3615 2,-30.6674 l 89,12 c 51,7 140.9238,8.1525 213.9238,5.1525 98,-4 139,-2 189,12 196,51 232.0762,110.5149 65.0762,127.5149 -27,3 -81,1 -120,-3 z"
       id="path1317"
       class="top-e♭" />
    <path
       d="M 777.82325,4444.3958 C 751.53288,4412.9135 725.19765,4331.1286 745.8146,4278.8386 765.94818,4227.7746 817.15086,4189.3949 879,4182 c 57.68697,-6.8972 80.31508,8.0807 132.4755,25.9366 -17.99999,93 -92.70893,248.0711 -125.78962,302.2565 -26.8146,-7.2978 -84.72313,-38.0881 -107.86263,-65.7973 z"
       class="low-c"
       id="path125" />
    <path
       class="low-d"
       d="M 846,4120 C 795.46766,4059.717 798.002,3978.1058 811.21025,3907.7127 851.93949,3690.6471 845.31316,3466.4496 909,3274 c 15.03701,-45.439 58.65283,-68.7617 88.08811,-105.4313 30.01589,-52.6829 14.21789,-124.7006 18.94589,-182.787 13.9997,0 19.6923,-0.2507 50.4325,-0.2507 -1.454,74.2701 -0.4574,160.3215 -0.4574,233.0062 -36.5146,40.7524 -68.23751,97.5459 -67.45817,152.5602 3.12657,220.704 24.06777,445.1848 20.44907,649.6526 -2.753,104.0611 -115.74019,167.5586 -173,99.25 z"
       id="path127" />
    <path
       d="m 2775,4030 c -155.1441,-19.7579 -141.0403,-45.3305 -288.0403,-95.3305 -33,-11 -112.6609,-22.7339 -137.6609,-29.7339 -1.1961,-17.3967 1.7745,0.351 -2.6859,-36.4601 11.145,-0.04 27,2 57,8 30,6 122.7742,12.3064 213.7742,11.3064 118,-1 181,3 223,14 143,37 211.6129,76.2181 141.6129,112.2181 -37,19 -123,26 -207,16 z"
       id="path1333"
       class="e♭-trill" />
    <path
       d="m 1410,4002 c -0.7606,-0.4011 -1.5127,-0.8048 -2.2566,-1.2111 C 1356.706,3972.9112 1348.6959,3930.5149 1363,3895 c 23.7104,-58.8693 79.9963,-74.4508 175,-75 77.9987,-0.4509 124,-16 142,-49 15.2933,-197.9199 10,-337.1307 10,-552 25.0046,1.9421 16.0348,-1.2526 41.0327,0.7743 l 3,313 c 2,296 1.1702,314.0855 -18,352 -25.8302,51.0862 -66.2572,95.1393 -117.0327,116.2257 -58.1831,24.1627 -144.2972,24.5724 -189,1 z"
       class="c♯"
       id="path130" />
    <path
       d="m 3070,3506 c -53.742,-15.0631 -107.6051,-40.1048 -143.0109,-84.7698 -27.6753,-50.9429 -25.863,-111.6528 -20.2636,-167.6584 3.1627,-21.1347 8.0856,-61.9445 38.4965,-49.6952 101.3269,36.5271 202.1434,75.0215 303.5254,111.6647 30.9701,7.5448 44.7267,35.8439 47.8613,64.8009 9.1814,29.2185 41.6761,36.3945 66.9283,45.846 25.8259,9.2034 53.5081,15.0961 77.1007,29.3232 17.1971,16.6772 9.6886,63.2063 -19.7509,56.5406 -91.6623,-6.2979 -183.5941,-3.0149 -275.1913,2.7064 -25.4403,0.012 -51.0919,-1.9465 -75.6955,-8.7584 z"
       class="low-e♭"
       id="path132" />
    <path
       d="m 3450,3291 c -41.9349,-20.499 -91.9988,-21.6847 -135.8682,-7.3195 -41.5379,3.5784 -79.5578,-17.7538 -118.2761,-29.4251 -73.0915,-26.7831 -146.3846,-53.5784 -217.0992,-86.1932 -25.9973,-8.5503 -32.894,-38.3401 -19.6403,-60.321 17.6264,-36.7203 45.1361,-68.5292 76.163,-94.6191 32.1042,-27.2625 75.8813,-38.7541 117.1763,-30.3918 74.8132,12.9752 136.5302,64.1443 184.6841,120.2285 20.0316,22.9923 34.9062,50.6653 57.3507,71.3297 24.4042,12.6801 46.1545,28.8287 67.2203,46.0534 24.9513,8.9667 61.1949,19.5788 50.6022,54.5238 -5.4341,30.9818 -41.1982,29.7909 -62.3128,16.1343 z"
       class="low-c♯"
       id="path134" />
    <path
       class="c♯-trill"
       d="m 2380.454,2715.1074 c 14.7565,-20.9784 20.2043,-30.0766 32.3734,-46.9915 52.7869,53.0487 126.7982,76.9329 180.3517,72.2888 -42.7079,-51.2399 -71.6728,-108.3405 -48.6483,-158.6261 23.896,-52.189 103.7002,-89.0245 157.6198,-69.3424 53.8525,19.6576 87.2596,98.2163 75.7885,154.385 -16.0582,78.6297 -97.1354,155.8082 -182.3399,157.2153 -80.3722,1.3273 -168.3446,-54.7769 -215.1452,-108.9291 z"
       id="path136" />
    <path
       d="m 998.36533,2368.8568 c -75.68916,-126.9137 -56.75876,-316.0681 -60.09012,-459.8614 h 37.10584 c 0,0 -4.45207,262.7766 8.7896,320.6698 164.80705,144.184 408.80585,92.887 552.53665,223.5016 28.6778,27.8988 55.259,77.7643 36.5935,112.5015 -24.5193,45.6314 -97.9657,41.347 -149.7673,41.4795 -208.7067,-9.68 -316.246,-89.777 -425.16817,-238.291 z"
       class="b♭"
       id="path138" />
    <path
       d="m 1320.6873,1557.4782 c -29.7136,-108.815 -22.2578,-234.6699 -19.4583,-334.6389 20.1027,-0.8549 8.8725,-0.103 25.2556,0.8757 4.7057,98.1387 -8.8378,188.8596 16.1026,266.0331 7.8981,24.464 35.2655,29.281 58.8598,27.2503 42.9344,-1.6626 85.2229,-14.5098 128.4637,-9.5013 53.1221,4.7657 110.7536,21.6375 144.4383,65.7101 25.8765,32.7021 13.806,85.8961 -23.7046,104.222 -39.5047,20.4416 -85.8563,21.3765 -129.3155,19.3412 -82.8811,-12.862 -171.4285,-78.0197 -200.6416,-139.2922 z"
       class="f♯"
       id="path140" />
    <path
       d="m 3045,1489 c -37.6921,-13.8554 -59.4762,-67.5222 -32.5818,-102.3792 42.9739,-55.6972 119.6085,-62.5345 184.2604,-54.5947 116.8808,14.354 202.7997,62.5277 320.8288,69.6953 98.3241,5.971 224.1766,-4.2468 322.4926,1.2786 l 1.3064,31.7262 c -153.5403,2.6121 -307.0381,3.9196 -460.673,10.005 C 3273.9421,1448.9572 3131.7642,1520.894 3045,1489 Z"
       id="path1381"
       class="b♭-alternate" />
    <path
       d="m 1640,1431 c -50.568,-14.2298 -94.9674,-43.6474 -133.9751,-78.1789 -37.0435,-30.3399 -69.9675,-64.7488 -79.1871,-114.4187 -13.4317,-117.6277 -6.3863,-211.053 -6.3863,-328.4024 l 38.6455,2.61287 c 0.6325,88.80763 -2.9661,181.60273 0.796,270.35083 3.0088,23.4248 -2.691,59.4932 21.4219,72.2358 29.5482,7.7564 85.514,-16.3865 115.2175,-17.5822 72.6585,-9.037 151.5443,0.4659 211.1396,46.2278 30.5553,21.8195 61.4913,59.0218 47.6075,98.8404 -20.3657,49.775 -78.8305,70.7251 -129.3692,66.0952 C 1696.6121,1446.955 1667.8728,1439.9369 1640,1431 Z"
       class="thumb-a♭"
       id="path143" />
    <path
       d="m 2710.6157,1157.0386 c -5.9531,-42.3419 35.8234,-83.7423 72.3976,-105.8919 91.4787,-55.40031 213.1404,-54.61107 318.6096,-37.7611 119.6813,19.1205 194.2741,90.6623 315.8469,97.3721 124.7155,6.8833 294.0228,-2.5323 418.8366,1.6775 L 3835,1155 c -140.7138,4.6077 -281.6799,7.1026 -422.2723,11.6458 -148.6683,40.3486 -295.7987,94.6812 -449.2114,109.1805 -93.1078,11.28 -237.7547,-35.5917 -252.9006,-118.7877 z"
       class="g"
       id="path145" />
    <path
       d="M 2461.5485,1024.7579 C 2449.1461,961.30924 2392.1776,828.7857 2383,766 c 27.6772,-12.69356 307,-110 315,-101 33.4756,86.84944 77.9169,205.5842 92,247 -106.5515,53.08812 -244.3297,93.3172 -328.4515,112.7579 z"
       class="f"
       id="path147" />
    <path
       d="m 2835.2901,895.3708 c -18.4678,-43 -66.9356,-181.64553 -89.5965,-243.20942 C 2883.6559,604.65186 3040.1672,588.15817 3180,520 c 45.9087,-23.18164 127.2901,-94.30644 130.2901,-124.30644 3.5797,-76.4001 1.4318,-136.82138 0.3872,-215.91931 28.8904,2.14259 40.5324,1.28224 69.3227,-0.77425 l 1,133 c 2,246 6,231 -90,331 -146.3006,161.15929 -318.121,184.26322 -455.7099,252.3708 z"
       class="pinkie-f♯"
       id="path149" />
    <path
       d="m 2351,663 c -11.9331,-65.67847 -25.6702,-142.54183 18.905,-199.55824 45.6156,-59.61173 112.5212,-100.2619 181.8162,-126.58845 78.7773,-22.86448 167.3389,-12.26803 236.2095,33.23809 44.8473,24.50194 104.7053,72.24915 155.8841,49.76329 38.08,-18.61257 40.3852,-83.12541 37.2912,-121.09654 1.7957,-37.90133 2.4133,-75.84504 3.894,-113.75815 l 66.9356,-1.30644 c -4.0155,82.75183 10.3757,176.13162 -21.086,255.154 -22.6039,37.73636 -52.9279,45.28838 -91.4641,59.65215 -33.4982,21.60961 -51.4149,66.46683 -94.4695,72.55805 -149.3644,47.45992 -301.7383,84.95453 -452.1813,128.48339 -20.5833,1.862 -42.76,-14.77417 -41.7347,-36.54115 z"
       class="a♭"
       id="path151" />
    <circle
       class="pancake"
       cx="1356.6044"
       cy="-2012.1709"
       r="266.51297"
       transform="scale(1,-1)"
       id="circle153" />
    <circle
       class="hole4"
       cx="2950.4561"
       cy="-2252.5552"
       r="145.35695"
       transform="scale(1,-1)"
       id="circle155" />
    <circle
       class="hole5"
       cx="2953.0693"
       cy="-1750.8837"
       r="145.35695"
       transform="scale(1,-1)"
       id="circle157" />
    <circle
       class="whisper"
       cx="1419.3131"
       cy="-3600.7974"
       r="145.35695"
       transform="scale(1,-1)"
       id="circle159" />
    <circle
       class="hole3"
       cx="2754.491"
       cy="-3608.636"
       r="145.35695"
       transform="scale(1,-1)"
       id="circle161" />
    <circle
       class="hole2"
       cx="2736.2007"
       cy="-4332.4019"
       r="145.35695"
       transform="scale(1,-1)"
       id="circle163" />
    <circle
       class="hole1"
       cx="2730.9751"
       cy="-5064.0054"
       r="145.35695"
       transform="scale(1,-1)"
       id="circle165" />
    <g
       id="g4597">
      <path
         id="path4597"
         d="M 625,2915 H 3855" />
      <path
         id="path4599"
         d="M 2138.0963,5547.3872 V 107.38699" />
    </g>
  </g>
</svg>
