<svg xmlns="http://www.w3.org/2000/svg" version="1" viewBox="0 0 323.000000 544.000000">
  <defs>
    <linearGradient id="half-hole" x1="0" y1="1" x2="1" y2="0">
      <stop offset="0%" stop-color="#fff" />
      <stop offset="50%" stop-color="#fff" />
      <stop offset="50%" stop-color="#000" />
      <stop offset="100%" stop-color="#000" />
    </linearGradient>
  </defs>
  <g transform="matrix(.1 0 0 -.1 -62.5 555)" fill="none" stroke="#000" stroke-width="15">
    <path d="M2711 5509c-51-11-121-31-154-45-62.7-18-171.8-63-203.2-70l-.2-33.8 93.7 25.6c43 4 118.7-32.8 193.7-33.8 115-3 149 0 214 17 126 35 185 74 169 114-17 45-167 58-313 26z" class="top-e"/>
    <path d="M1647.2 5220.6c0-50.3 3-222.5.8-308.5-1.4-58-36.8-54-137-91-176.8-64-184-171-9-171 68 0 120.7 21 158 58 31.4 31 25 37 25 277l-1.3 237h-36.5z" class="top-d"/>
    <path d="M937.3 4545.8c39-67 70-97.3 89.2-184.8 10.2-46.2 23.3-132.6 76-141 30.7-4.7 60.6 34.3 67 64.7 17.5 80-31.4 160-90.5 228-45 51.6-93.4 125.2-95.3 199.3-4.6 169.3 0 330.6 1.8 488l-45.2 1.8c-1.6-219.4-1.6-457.4-3-656z" class="low-b"/>
    <path d="M1070.5 5195.8c.2-179.3-.5-350-.5-515 37-55.2 84.4-115.3 117-173 23.6-42 18.4-99.2 34.3-143.8 12.5-35 42-74 81.7-74 34.7 0 64.3 34.8 72.3 67 15.2 61.8-15.3 120-54.2 172.7-51 69.7-127 122-175 193.5-36 53-24 135.8-24 196.6-1 92 0 184 0 276h-51z" class="low-b♭"/>
    <path d="M1754.4 4985.3c0-30.2-.4-79.3-.4-166.3 0-152-12.8-164.5-35.8-192.5-15-17-76.2-34.5-118.2-51.5-79-32-120-71-120-115 0-39 39-61.5 115-68 75-6.5 137.4 17.2 176.8 75 24.6 36.2 25 37 25 277v241c-19 2.3-7 .3-42.4.3z" class="top-c"/>
    <path d="M1958 4610c-.2-243.3-90-294.5-273-290-114.6 2.8-356.8-13.2-236.2-131.8 40.4-39.7 141-65 215-59 115 9.5 263.7 41.2 313.8 145 20 41.2 21 60 21 345v302c-23.3 0-15.3-1.2-38.6-1.2-2.3-103.3-2-206.7-2-310z" class="tuning-a"/>
    <path d="M2785 4780c-86-10-160-29-288-75-43.3-28.4-88-35.8-151-48 1-23 0 2.4 2-30.7l89 12c51 7 141 8.2 214 5.2 98-4 139-2 189 12 196 51 232 110.5 65 127.5-27 3-81 1-120-3z" class="top-e♭"/>
    <path d="M777.8 4444.4c-26.3-31.5-52.6-113.3-32-165.6 20-51 71.4-89.4 133.2-96.8 57.7-7 80.3 8 132.5 26-18 93-92.7 248-125.8 302.2-26.8-7.3-84.7-38-108-65.8z" class="low-c"/>
    <path class="low-d" d="M846 4120c-50.5-60.3-48-142-34.8-212.3 40.7-217 34-441.3 97.8-633.7 15-45.4 58.7-68.8 88-105.4 30-52.7 14.3-124.7 19-182.8 14 0 19.7-.3 50.5-.3-1.5 74.3-.5 160.4-.5 233-36.5 40.8-68.2 97.6-67.4 152.6 3 221 24 446 20.4 650-2.8 104-115.7 168-173 100z"/>
    <path d="M2775 4030c-155-19.8-141-45.3-288-95.3-33-11-112.7-22.8-137.7-29.8-1.2-18 1.8 0-2.7-37 11.2 0 27 2 57 8s122.8 12 213.8 11c118-1 181 3 223 14 143 37 211.6 76 141.6 112-37 19-123 26-207 16z" class="e♭-trill"/>
    <path d="M1410 4002l-2.3-1.2c-51-28-59-70.3-44.7-105.8 23.7-59 80-74.5 175-75 78-.5 124-16 142-49 15.3-198 10-337 10-552 25 2 16-1.3 41 .8l3 313c2 296 1.2 314-18 352-25.8 51-66.2 95-117 116.2-58.2 24.2-144.3 24.6-189 1z" class="c♯"/>
    <path d="M3070 3506c-53.7-15-107.6-40-143-84.8-27.7-51-26-111.6-20.3-167.6 3.2-21.2 8-62 38.5-49.7 101.3 36 202.2 75 303.5 111 31 7 44.8 36 48 65 9 29 41.6 36 66.8 46 26 9 53.5 15 77 29 17.3 16 9.8 63-19.6 56-92-6.5-184-3-276 2.5-26 0-51-2-76-8.8z" class="low-e♭"/>
    <path d="M3450 3291c-42-20.5-92-21.7-136-7.3-41.4 3.6-79.4-17.8-118-29.4-73.2-26.8-146.5-53.6-217.2-86.2-26-8-33-38-19.7-60 18-36 46-68 77-94 32-27 76-38.2 117-30 75 13 137 64 185 120.4 20 23 35 50.6 57.8 71.3 24.4 12.7 46 28.8 67 46 25 9 61 19.6 50.7 54.6-5.4 31-41.2 30-62.3 16z" class="low-c♯"/>
    <path class="c♯-trill" d="M2380.5 2715c14.7-21 20.2-30 32.3-47 52.8 53.2 126.8 77 180.4 72.4-42.7-51.2-71.7-108.3-48.7-158.6 24-52.2 103.7-89 157.7-69.4 53.8 19.7 87.2 98.3 75.7 154.4-16 78.7-98 155.8-183 157.2-81 1.4-169-54.7-215-109z"/>
    <path d="M998.4 2369c-75.7-127-56.8-316.2-60-460h37s-4.5 262.8 8.8 320.7c164.8 144 408.8 93 552.5 223.5 28.7 28 55.3 77.7 36.6 112.5-24.5 45.6-98 41.3-149.8 41.4-208.7-9-316.2-89-425-238z" class="b♭"/>
    <path d="M1320.7 1557.5c-29.7-108.8-22.3-234.7-19.5-334.7 20-.8 9 0 25.3 1 4.7 98-9 188.8 16 266 8 24.4 35.4 29.2 59 27.2 43-1.7 85.2-14.5 128.4-9.5 53 4.8 110 21.6 144 65.7 26 32.7 14 86-24 104.2-40 20.5-86 21.4-130 19.4-83-13-171.4-78-200.6-139.3z" class="f♯"/>
    <path d="M3045 1489c-37.7-14-59.5-67.5-32.6-102.4 43-55.7 119.6-62.5 184.3-54.6 117 14.4 202.8 62.6 320.8 69.7 98.3 6 224.2-4.2 322.5 1.3l1.3 31.7c-153.5 2.6-307 4-460.7 10-106.7 4.3-248.8 76.2-335.6 44.3z" class="b♭-alternate"/>
    <path d="M1640 1431c-50.6-14.2-95-43.6-134-78.2-37-30.3-70-64.7-79.2-114.4-13.4-117.6-6.3-211-6.3-328.4l38.6 2.6c1 88.8-3 181.6 1 270.4 3 23.4-2 59.5 22 72.2 30 7.8 86-16.4 115-17.6 73-9 152 .5 211 46.2 31 22 62 59 48 99-20 49.7-79 70.6-129 66-29.2-1.8-58-9-86-17.8z" class="thumb-a♭"/>
    <path d="M2710.6 1157c-6-42.3 35.8-83.7 72.4-106 91.5-55.3 213.2-54.5 318.6-37.6 119.7 19 194.3 90.6 316 97.4 124.6 6.8 294-2.6 418.7 1.6l-1.3 42.6c-140.7 4.6-281.7 7-422.3 11.6-148.6 40.4-295.8 94.7-449.2 109.2-93 11.3-237.7-35.6-253-118.8z" class="g"/>
    <path d="M2461.5 1024.8c-12.4-63.5-69.3-196-78.5-258.8 27.7-12.7 307-110 315-101 33.5 86.8 78 205.6 92 247-106.6 53-244.3 93.3-328.5 112.8z" class="f"/>
    <path d="M2835.3 895.4c-18.5-43-67-181.7-89.6-243.2 138-47.5 294.5-64 434.3-132.2 46-23.2 127.3-94.3 130.3-124.3 3.6-76.4 1.4-136.8.4-216 29 2.2 40.5 1.4 69.3-.7l1 133c2 246 6 231-90 331-146.3 161.2-318 184.3-455.7 252.4z" class="pinkie-f♯"/>
    <path d="M2351 663c-12-65.7-25.7-142.5 19-199.6 45.5-59.6 112.4-100.2 181.7-126.5 78.8-23 167.4-13 236.2 33 44 24 104 72 155 50 38-19 40-84 37-122 2-38 2.2-76 4-114l67-1.7c-4 82.7 10 176-21.5 255-22.6 38-53 45.4-91.4 60-33 22-51 67-94 73-149.4 47.3-302 85-452.3 128.3-20.6 2-42.8-14.7-41.8-36.5z" class="a♭"/>
    <circle class="pancake" cx="1356.6" cy="2012.2" r="266.5"/>
    <circle class="hole4" cx="2950.5" cy="2252.6" r="145.4"/>
    <circle class="hole5" cx="2953.1" cy="1750.9" r="145.4"/>
    <circle class="whisper" cx="1419.3" cy="3600.8" r="145.4"/>
    <circle class="hole3" cx="2754.5" cy="3608.6" r="145.4"/>
    <circle class="hole2" cx="2736.2" cy="4332.4" r="145.4"/>
    <circle class="hole1" cx="2731" cy="5064" r="145.4"/>
    <path d="M625 2915h3230M2138 5547.4v-5440"/>
  </g>
</svg>
